# xmcd CD database file
#
# Track frame offsets:
#	150
#	17662
#	49642
#
# Disc length: 723 seconds
#
# Revision: 0
# Processed by: cddbd v1.5.1PL0 Copyright (c) Steve Scherf et al.
# Submitted via: CDex 1.51
#
DISCID=1902d103
DTITLE=Hermann H.&The Pacemakers - あまつゆのバラード
DYEAR=2003
DGENRE=Rock
TTITLE0=あまつゆのバラード
TTITLE1=バリア
TTITLE2=CDEXTRA
EXTD=YEAR: 2003
EXTT0=
EXTT1=
EXTT2=
PLAYORDER=
